<svg width="496" height="108" viewBox="0 0 496 108" fill="none" xmlns="http://www.w3.org/2000/svg">
<path d="M45 62.0505C134.703 48.0504 539.194 41.5502 433.531 62.0504" stroke="#1027FC" stroke-width="90" stroke-linecap="round"/>
<path d="M132 65.24C173.5 49.4924 153.455 38.2729 145.5 49.9846C137.545 61.6963 142.371 69.871 149.5 68.1927C157.696 66.2631 171.942 50.8617 181.43 43.28C186.905 38.905 162.323 80.9979 169 71.6375C174.486 63.9466 197.284 37.8635 195 47.032C193.302 53.8456 188.986 67.2611 192.5 61.7953C198.421 52.5853 216.186 38.116 211.5 48.0162C204.823 62.1216 208.732 67.6607 215.5 63.7636C221.108 60.5348 249.23 34.229 240.168 44.273C234.881 50.1336 228.174 63.9897 236.37 67.4538C244.902 71.0602 256.216 47.4059 245.86 44.273" stroke="white" stroke-opacity="0.9" stroke-width="3.5" stroke-linecap="round"/>
<path d="M51 103.729C70.3331 65.5667 98.0266 2.67624 96.459 31.6259C94.8915 60.5755 93.8464 55.3564 93.8464 66.0659C93.8464 76.7754 135.648 6.17046 138.783 10.1635C141.918 14.1566 110.044 95.5147 110.599 104" stroke="white" stroke-opacity="0.9" stroke-width="4" stroke-linecap="round"/>
<path d="M257 96C273.875 57.7407 308.08 -11.4143 300.783 21.2755C293.486 53.9654 302.941 56.3461 309.326 49.0035C315.711 41.661 344.11 -1.74305 346.846 2.2602C349.583 6.26344 314.921 87.4931 315.405 96" stroke="white" stroke-opacity="0.9" stroke-width="4" stroke-linecap="round"/>
<path d="M358.597 45.8115C351.833 34.3915 333.421 61.5631 339.057 66.2886C343.068 69.6509 366.112 37.5419 363.858 52.1122C361.603 66.6824 365.87 64.7943 370.675 61.277C375.481 57.7598 376.105 56.7548 388.455 46.2024C406.431 30.8428 375 74.3417 363.858 100.155C353.403 124.373 394.894 25.4193 409.701 46.9929C414.633 54.18 410.233 60.7756 409.325 62.3507C405.183 69.5332 396.253 71.8288 389.409 67.4699" stroke="white" stroke-opacity="0.9" stroke-width="3.5" stroke-linecap="round"/>
</svg>
