<svg width="538" height="67" viewBox="0 0 538 67" fill="none" xmlns="http://www.w3.org/2000/svg">
<path d="M19.2091 33.8461C14.0875 21.8298 -5.20493 51.7335 4.86873 51.9986C13.1903 52.2175 25.5008 27.8301 23.0502 35.6358C16.5 56.5 45 45 42 43.0502" stroke="black" stroke-width="3" stroke-linecap="round"/>
<path d="M63 55.0001C66.5 58.5001 93.3406 35.7845 95.5 13.1422C97.6594 -9.50008 68.513 43.7727 82.3145 50.2683C93.8617 55.703 113.525 24.2428 110.375 33.5253C107.5 42 106 51.0362 114.02 48C141.351 37.6521 146.453 -5.78461 140.258 15.3263C136.297 28.8241 120.957 55.0001 136.978 50.2683C168.319 41.0123 173.406 -4.84473 168.269 13.1423C163.531 29.729 161.345 31.1849 160.252 43.5602C158.312 65.5144 196.376 36.8765 201 15.3263C204.28 0.0390711 180 33.5 185.5 46.5001C192.712 63.5475 230 36.0001 220.567 32.4887C212.781 29.5901 203.5 65.0001 231.5 44.5001M123.859 22.4494C143.538 24.9972 178.158 19.5375 176.701 22.4494M114.748 19.9015L114.02 22.0854" stroke="black" stroke-width="3" stroke-linecap="round"/>
<path d="M277.35 32.6656C271.66 25.406 255.836 40.446 258.248 49.2012C260.86 58.6804 278.975 28.6325 280.601 39.1185C280.601 39.1185 281.622 41.6524 283.04 45.1681C289.542 61.3005 320.193 -15.7491 311.082 6.85378C302.629 27.8259 296.603 64.9927 301.328 44.3614C303.36 35.4887 317.585 26.2127 320.43 36.6986C323.362 47.504 301.964 60.304 304.58 51.2178C306.205 45.5715 354.692 28.7262 342.783 32.6656C337.906 34.2788 331.81 55.2508 342.783 51.2178C355.791 46.4367 346.824 28.3795 350.911 34.2788C355.382 40.7318 373.441 26.9428 371.639 32.6656C369.607 39.1185 365.542 44.3615 367.168 48.3946C370.934 57.7377 391.008 25.5084 387.895 35.0853C383.831 47.5878 390.74 50.4111 395.617 46.7814C413.905 33.1704 422.441 -12.9081 415.532 6.85403C409.276 24.7461 406.184 66.9469 411.874 64.9302M395.617 20.5663C407.403 19.3564 428.537 19.7597 426.911 22.1796" stroke="black" stroke-width="3" stroke-linecap="round"/>
<path d="M463.834 28C454.958 60.0623 459.5 54.344 467.842 43.182C476.184 32.02 484.543 20.7131 478.893 43.182C476.489 52.7403 490.095 21.4176 492.707 39.8772C496.251 64.9202 529.685 38.4223 523.765 32.9916C517.28 27.0429 504.03 66.4773 536 43.183" stroke="black" stroke-width="3.5" stroke-linecap="round"/>
</svg>
