<svg width="787" height="115" viewBox="0 0 787 115" fill="none" xmlns="http://www.w3.org/2000/svg">
<path d="M292.376 20C275.452 43.6674 251 85.3503 270.5 80.3503C298.857 73.0793 329.729 20 328.582 22.5304C324.895 30.6617 284.492 82.0498 304.5 62.3503C314.5 52.5047 325.418 41.3503 323.5 55.8503C320.801 76.2532 342.971 64.813 353 49.3503C357.093 43.039 343.75 57.1379 351.5 63.8651C360.589 71.7541 380.165 41.8856 377.5 48.3503C356.815 98.5252 397.331 36.6823 395.5 52.3503C394.246 63.0795 404.5 72.8503 422 56.8503C430.873 48.738 438.854 47.8079 430.5 50.3503C419 53.8503 417.492 67.8503 424.5 67.8503C430.768 67.8503 438.551 58.8503 441 53.8503C445.238 45.1982 442 77.0149 435 101.35C427.655 126.884 413.274 104.99 420 88.8503C427.71 70.3503 440 71.3503 454 62.8503C468.701 53.9247 473.741 45.5864 474 47.8503C477.531 78.7021 460 85.5392 460 72.7021C460 60.2021 480.469 67.2465 486.469 52.3503M259.5 28.8503C259.5 28.8503 301 30.3503 301 28.8503M359.5 33.8503L358.5 35.8503" stroke="black" stroke-width="3.5" stroke-linecap="round"/>
<path d="M515.5 70.1814C562.5 76.1814 595.249 -43.3654 553 21.1814C535 48.6814 530 89.1814 579.5 55.1814" stroke="black" stroke-width="3.5" stroke-linecap="round"/>
<path d="M599.5 75.4071C667.833 65.5003 688 -47.8302 639 42.8839C625 68.8023 638.667 75.0812 669.5 56.9187C700.333 38.7562 696.603 39.0441 688 46.5C680.5 53 682 71.5 694.5 63C711.129 51.6922 690.627 36.1005 701.583 42.884C708.25 47.0119 723.575 41.0583 723.25 42.884C720.75 56.9187 723.574 70.607 730.75 61.0467C742.833 44.948 735.791 38.4332 748.25 47.8375C761.375 57.7444 767.466 55.6803 774.083 47.0118C780.012 39.2449 769.5 37.5177 763.25 47.0118C752.728 62.9952 766.583 72.6047 784.5 58.9826" stroke="black" stroke-width="3.5" stroke-linecap="round"/>
<path d="M90.1631 47.0983C83.2156 40.1415 72.5 54.2394 72.5 61.4861C72.5 68.7327 81.2198 71.447 95.4041 47.0983C97.9104 42.796 88.6896 74.5696 104.383 64.0935C115.629 56.5855 133.681 37.783 128.181 48.7979C126.021 53.1233 119.837 72.8568 128.181 62.7115C135.465 53.8548 147.287 41.1263 147.287 51.1169C147.287 61.1074 148.039 71.4087 156 64.0935C189.422 33.3848 197.259 49.8568 189.422 45.3196C182.066 41.0612 169.2 59.0398 175.078 65.8318C180.957 72.6237 199.973 48.7978 212.202 20.3512C224.431 -8.09544 159.792 87.5604 220.5 58.0096" stroke="black" stroke-width="3" stroke-linecap="round"/>
<path d="M2 53.2886C16 54.2888 55 52.2888 50.5 53.2886" stroke="black" stroke-width="3" stroke-linecap="round"/>
</svg>
