<svg width="958" height="127" viewBox="0 0 958 127" fill="none" xmlns="http://www.w3.org/2000/svg">
<rect width="958" height="127" fill="white"/>
<path d="M6 84.4998C31.5 87.5 63.3592 47.9048 64.5 52.4048C73.5 87.9046 35.1272 97.8056 44.5 83.4998C54 69 68.064 77.1945 95.5 58.9046C98.5 56.9047 84.619 62.4047 87 74.9047C88.046 80.3962 92.3341 79.4554 95 77.4047C108 67.4047 92.7249 54.9204 99 58.9046C130.5 78.9048 143.5 46.9998 134.5 62.9046C121.33 86.1793 126 83.5714 138 72.9047C150 62.238 158 53.4998 152 72.9047C148.955 82.7525 173.285 50.5744 169.5 69.4998C164.5 94.4998 209.5 66.9998 202 61.4047C193.785 55.2758 177 95.9045 217.5 71.9047" stroke="black" stroke-width="3.5" stroke-linecap="round"/>
<path d="M525 84.8107C565.82 89.9861 594.262 -13.1305 557.569 42.5452C541.936 66.2656 537.593 101.199 580.584 71.8722M593.177 29.019C592.309 32.4693 591.875 38.5072 593.177 37.2134M600.56 56.6209C600.56 68.6403 600.56 86.3793 605.336 77.9102C611.553 66.8878 617.09 52.107 625.746 61.365C631.391 67.403 643.116 69.5594 650.064 62.6589C655.658 57.1034 648.761 54.0333 643.985 59.2086C624.912 79.8735 646.156 86.8106 667 66.5404" stroke="black" stroke-width="3.5" stroke-linecap="round"/>
<path d="M273.039 53.7536C266.039 82.2536 230.884 145.753 245.539 116.253C260.193 86.7534 284.539 38.2535 287.039 62.7535C289.539 87.2535 255.759 77.0406 269.039 79.2536C277.539 80.6701 332.039 58.7535 333.539 31.7535C333.931 24.6933 316.039 40.2534 308.539 55.2534C298.82 74.6904 302.597 79.1434 310.539 77.7536C330.539 74.2534 345.539 58.208 354.539 60.2534C361.997 61.9485 348.5 54 340 71.7534C336.643 78.7657 342.718 81.3793 351 74.7534C368.5 60.7534 362.421 58.8646 361.84 66C360.801 78.7464 372.082 79.2659 380.34 71.7534C407 47.5 411.533 62.5334 407 58C404 55 393.711 59.5 391.5 70C388.497 84.2647 405.039 77.2534 412.539 74.7534C450.406 62.131 422.913 48.8213 420.539 73.7534C419.539 84.2534 435.94 77.0213 446.039 71.2534C467.107 59.2203 471.325 53.2592 471.539 57.2534C473.039 85.2534 456.444 85.2536 457 77.7536C458 64.2483 493.5 63.7532 504 74.7534" stroke="black" stroke-width="3" stroke-linecap="round"/>
<path d="M742.856 25C735.398 55.0532 710.671 95.6445 718.521 83.9355C726.371 72.2264 743.731 49.4881 749.5 60.1416C755.269 70.7951 744.819 84.3258 730.296 82.7646C711.962 80.7936 790 73 783.5 60.1416C780.916 55.0305 765.908 65.9448 769 75.3418C773 87.5 821.886 69.2702 813.5 62C808.408 57.5853 800.382 68.9824 802.62 75.3418C808.116 90.9539 859.956 42.5 842.5 74C833.077 91.0046 865.608 57.4596 867 68.5C869.018 84.5023 890.935 80.8131 898 73.007" stroke="black" stroke-width="3" stroke-linecap="round"/>
<path d="M913.5 60.9998C927.5 62 953 60 948.5 60.9998" stroke="black" stroke-width="3" stroke-linecap="round"/>
</svg>
