<svg width="646" height="138" viewBox="0 0 646 138" fill="none" xmlns="http://www.w3.org/2000/svg">
<path d="M50 72C117.728 71.9999 577.874 22.5001 595 72" stroke="#FF4500" stroke-width="100" stroke-linecap="round"/>
<path d="M67.9578 30.0086C59.7863 61.2601 55.5232 79.206 42.5173 111.556C29.084 144.97 73.2291 17.1111 88.1746 39.0566C103.12 61.0021 56.9425 87.9202 50.9449 81.6178C44.2396 74.5716 61.5717 96.0474 72.6354 96.0725C88.6634 96.1088 106.725 82.9518 105.416 77.085C103.669 69.2567 92.4736 79.2495 91.7307 87.328C90.5684 99.9666 101.835 100.607 118.679 87.2997M137.446 76.0714C126.062 70.2323 113.45 96.6122 125.513 96.4301C130.841 96.3496 139.556 88.4581 141.957 82.449C147.313 69.0437 157.101 36.6651 157.101 36.6651C164.906 14.3796 125 104.796 160.98 87.1596M183.811 68.8058C169.332 63.8627 161.188 85.099 163.882 90.2809C166.576 95.4628 175.857 90.2778 180.242 83.8822C190.675 68.6686 204.762 17.6334 199.583 36.0235C194.499 54.0801 176.941 86.3997 193.221 87.2197C198.5 87.4855 208.327 83.4581 215.932 67.5314C220.039 58.9316 205.255 82.5943 216.842 85.8173C229.335 89.2924 250.509 65.3455 256 29.3156C260.088 2.48987 242.295 99.9802 242.295 99.9802M236.329 49.6266C248.8 45.5112 258.806 48.3869 270.713 51.3583M225.634 49.7882L226.259 48.4231" stroke="white" stroke-opacity="0.9" stroke-width="3.5" stroke-linecap="round"/>
<path d="M307 89.5C310.897 62.1517 316.019 51.2401 321 20C323.316 5.47009 329.767 69.6665 333.672 62.7242C343.691 44.9133 349.145 32.054 358.5 12.0001C370 -12.6533 344.5 71.0497 347 98.5001M369.207 50.07C360.249 54.3912 354.782 71.8027 364 73.5C372.215 75.0126 379.405 59.2067 375.5 54C371.222 48.2961 409.93 48.6505 405.024 48.2961C394 47.5 382.276 58.3618 387 68.5C389.59 74.0591 396.412 72.5807 400 68.5C413.834 52.768 412.728 40.8406 417.5 21.3155C424.081 -5.60898 408.788 59.8709 405.024 89.3155" stroke="white" stroke-opacity="0.9" stroke-width="3.5" stroke-linecap="round"/>
<path d="M448 24.3905C473.579 19.1184 489 9.89053 513.5 10.8905M481.5 17.0743C475.837 48.121 472.663 65.5276 467 96.5743M494.5 48.0743C477 58.3154 481.5 85.4684 496 74.8153C510.5 64.1622 492.692 44.7362 503 50.6267C510 54.6267 540.301 42.8574 529.5 48.8856C513.5 57.8153 517 79.8154 529.5 74.8153C545.5 68.4152 529.792 43.9435 538.5 50.6267C560 67.1266 575.391 -2.57535 570 17.0743C554.5 73.5743 550 98 550 103.5M584.5 50.6267C578 48.8678 572.5 51.8678 572.5 56.6267C572.5 63.1267 581.243 62.5808 580.5 71.5C580 77.5 572.942 83.0499 567 78.5" stroke="white" stroke-opacity="0.9" stroke-width="3.5" stroke-linecap="round"/>
</svg>
