<svg width="613" height="145" viewBox="0 0 613 145" fill="none" xmlns="http://www.w3.org/2000/svg">
<path d="M41 75.7364C106.616 75.7363 550.909 15.7366 567.5 65.2365" stroke="#FF4500" stroke-width="90" stroke-linecap="round"/>
<path d="M50.18 36.9779C41.9435 68.4776 37.6466 86.566 24.5374 119.173C10.9974 152.852 55.493 23.978 70.5573 46.0978C85.6215 68.2176 39.0771 95.3494 33.0319 88.997C26.2733 81.8949 42.0799 105.779 57.0011 101.84C73.8693 97.3878 89.2546 83.7197 87.9353 77.8064C86.175 69.9159 74.8904 79.988 74.1416 88.1307C72.9701 100.87 84.3264 101.515 101.304 88.1022M118.328 78.6766C106.854 72.7912 94.1417 99.3806 106.3 99.197C111.67 99.1159 120.455 91.1617 122.875 85.1049C128.273 71.5931 138.14 38.9574 138.14 38.9574C146.006 16.495 105.783 107.629 142.049 89.8529M163.424 71.3534C148.831 66.371 141.316 84.6904 144.032 89.9135C146.747 95.1365 159.004 89.5795 163.424 83.1331C173.939 67.7987 192.714 18.3148 182.919 34.8944C171.465 54.2807 158.136 84.2785 174.546 85.1049C179.867 85.3729 189.772 81.3135 197.438 65.2603C201.577 56.5922 187.22 79.5561 198.899 82.8047C211.491 86.3074 232.289 65.5653 237.824 29.2492C241.945 2.21053 224.01 102.775 224.01 102.775M217.997 52.0219C230.567 47.8738 241.468 50.8088 252.346 48.6048M202.487 52.1847L203.116 50.8088" stroke="white" stroke-opacity="0.9" stroke-width="3.5" stroke-linecap="round"/>
<path d="M286.5 84.4462C290.397 57.0978 301.927 0.954182 304.926 32.4463C307.926 63.9463 311.54 60.3142 316.926 54.4463C333.926 35.9259 349.426 -5.05385 343.927 20.4667C338.196 47.06 327.5 84.7861 330 112.236M355.426 54.4463C346.468 58.7675 338.708 82.749 347.926 84.4462C356.141 85.9588 366.926 73.4462 360.926 58.9462C358.2 52.3581 389.271 56.3925 386.926 55.4462C378.426 52.0162 366.661 65.731 370.5 76.2364C373.5 84.4462 382.411 76.8171 386 72.7364C399.834 57.0044 412.369 5.43923 403 23.222C384.127 59.0424 386.574 92.7364 419.074 61.2364" stroke="white" stroke-opacity="0.9" stroke-width="3.5" stroke-linecap="round"/>
<path d="M442 14.2873C469.5 6.5 507.5 11.8617 507.5 11.8617M476 14.2873C470.337 45.334 464.5 59.7365 462 91.3617M491 46.0896C473.5 51.8175 474.5 86.2427 489 75.5896C503.5 64.9366 488.192 44.1992 498.5 50.0896C505.5 54.0896 528.301 44.0615 517.5 50.0896C501.5 59.0194 505 84.0897 517.5 79.0896C533.5 72.6896 517.125 50.0786 528 48.5896C539.5 47.0152 559.662 -13.5749 551.5 16.235C540 58.2365 534 94.7364 538.5 93.7364M562 48.5896C553 50.5896 553.001 56.8921 555 60.0896C558.447 65.6008 560.917 65.5896 560.5 70.5896C560 76.5896 553 80.7871 548.5 71.7873" stroke="white" stroke-opacity="0.9" stroke-width="3.5" stroke-linecap="round"/>
</svg>
