<svg width="310" height="202" viewBox="0 0 310 202" fill="none" xmlns="http://www.w3.org/2000/svg">
<path d="M249.558 172.972V2C249.558 1.44772 249.11 1 248.558 1H2C1.44772 1 1 1.44772 1 2V164.478V172.972L70.6525 200.928C70.771 200.976 70.8974 201 71.025 201H305.466C306.538 201 306.859 199.543 305.887 199.093L249.558 172.972Z" fill="white"/>
<path d="M249.558 172.972V2C249.558 1.44772 249.11 1 248.558 1H2.00001C1.44772 1 1.00001 1.44772 1.00001 2V164.478V172.972M249.558 172.972H1.00001M249.558 172.972L305.887 199.093C306.859 199.543 306.538 201 305.466 201H71.025C70.8974 201 70.7709 200.976 70.6525 200.928L1.00001 172.972" stroke="black" stroke-width="1.5"/>
<path d="M32.5002 35.5002C71.5526 64.5943 84.0814 115.214 132.5 110C158.027 107.251 184.424 104.818 191 80.0002C195.652 62.4456 188.965 49.5841 177.5 35.5002C147.951 -0.798941 120.575 51.4303 83.5 80C67.6233 92.2343 50.2906 114.767 32.5002 124C-1.96799 141.889 47.7586 37.8274 86.5002 40.5002C129.211 43.4469 70.6978 126.989 108 148C136.389 163.991 180.895 170.477 191 139.5C200.297 111.001 139.583 109.836 142.5 80.0002C146.262 41.5267 229.921 9.32421 236 47.5002C240.056 72.9688 201 103.5 201 103.5" stroke="#40873E" stroke-width="1.0"/>
</svg>
