<svg width="346" height="94" viewBox="0 0 346 94" fill="none" xmlns="http://www.w3.org/2000/svg">
<path d="M21.0479 44.6414C19.0834 38.6829 9.27908 36.5526 2.54809 48.3317C-1.45198 55.3317 2.65736 64.5189 10.7667 60.0599C16.5005 56.9071 37.5 31.2374 53.5 2.2282C59.2029 -8.11158 8.77437 53.2741 36.031 58.6062C51 61.5345 82.7811 51.6046 84.7456 44.6414C86.71 37.6783 76.1521 37.2523 71.6491 46.0951C67.5143 54.2148 74.1886 63.1383 89 58.6062C103.811 54.074 156.268 35.7272 135.969 38.7114C118.017 43.4326 129.091 55.7676 131.343 61.5346C134.795 70.3773 130.278 73.2615 125.775 74.183C124.649 74.4133 117.132 74.4268 119.02 67.2626C120.908 60.0983 153.5 53.0001 167 44.5001C180.5 36.0001 165.348 51.1072 171.5 57.5001C177.026 63.2428 224 39 236.01 41.3477C249.636 44.0116 223 34.9999 221.5 51.5C220.589 61.5187 227 58.6584 230.5 56C236.393 51.5237 244 41.7214 244 46.5001C244 51.1072 234 87.5001 222 91.5001C210 95.5001 206.572 80.0574 220 69.5001C233.428 58.9429 276.355 55.6875 294.981 41.3311C302.253 35.726 280.336 65.042 288 58.0001C298.101 48.7197 309.358 39.2161 312.5 45.5001C314.5 49.5001 318.64 55.848 321 57.5001C326 61.0001 333 59.0001 345.5 54.5001M178.5 27.5001L177.5 29.5001" stroke="black" stroke-width="2"/>
</svg>
