<svg width="346" height="92" viewBox="0 0 346 92" fill="none" xmlns="http://www.w3.org/2000/svg">
<path d="M21.0479 44.6414C19.0834 38.6829 9.27908 36.5526 2.54809 48.3317C-1.45198 55.3317 2.65736 64.5189 10.7667 60.0599C16.5005 56.9071 37.5 31.2374 53.5 2.2282C59.2029 -8.11157 8.77437 53.2741 36.031 58.6062C51 61.5345 82.7811 49.6046 84.7456 42.6414C86.71 35.6783 76.1521 35.2523 71.6491 44.0951C67.5143 52.2148 74.1886 61.1383 89 56.6062C103.811 52.074 156.268 33.7272 135.969 36.7114C118.017 41.4326 129.091 53.7676 131.343 59.5346C134.795 68.3773 130.278 71.2615 125.775 72.183C124.649 72.4133 117.132 72.4268 119.02 65.2626C120.908 58.0983 153.5 51.0001 167 42.5001C180.5 34.0001 165.348 49.1072 171.5 55.5001C177.026 61.2428 224 37 236.01 39.3477C249.636 42.0116 223 32.9999 221.5 49.5C220.589 59.5187 227 56.6584 230.5 54C236.393 49.5237 244 39.7214 244 44.5001C244 49.1072 234 85.5001 222 89.5001C210 93.5001 206.572 78.0574 220 67.5001C233.428 56.9429 276.355 53.6875 294.981 39.3311C302.253 33.726 280.336 63.042 288 56.0001C298.101 46.7197 309.358 37.2161 312.5 43.5001C314.5 47.5001 318.64 53.848 321 55.5001C326 59.0001 333 57.0001 345.5 52.5001M178.5 25.5001L177.5 27.5001" stroke="black" stroke-width="2"/>
</svg>
