<svg width="510" height="94" viewBox="0 0 510 94" fill="none" xmlns="http://www.w3.org/2000/svg">
<path d="M22.024 48.8106C19.1704 39.2575 11.207 42.683 9.99961 43.5C2.15113 48.8106 1.49998 56.0003 2.15113 57.6033C2.58664 58.6755 5.5 65 16.5 58.0002C27.5 51.0005 68.1593 -13.9571 51.4995 5.5314C34.8397 25.0199 23.9413 51.0097 31.9995 58.202C40.0578 65.3942 61.6468 55.3009 67.9151 50.4657C74.1834 45.6306 72.0692 39.6318 65.0145 45.2911C61.1646 48.3794 58.6739 56.4006 67.4329 58.202C76.192 60.0034 106.007 39.5796 103.114 46.4732C100.221 53.3668 101.677 64.8533 107.454 57.7185C114.54 48.9654 115.238 41.6027 122.401 49.9822C128.187 56.7514 146.702 54.4187 152.912 53.2567C158.179 52.2712 163.315 48.3973 161.5 45.0002C159.684 41.603 154.99 45.103 152.5 48.5002C150.009 51.8973 151.052 58.059 156.5 60.0002C166.836 63.6832 201.865 36.3393 209.946 29.535C225.267 16.6341 226.937 3.33897 217.21 8.66709C207.482 13.9952 168.373 66.3697 199.549 56.7514C217.597 51.1833 222.459 47.4239 226.796 45.0084C237.978 38.7808 213.871 51.766 220.841 59.5614C224.775 63.9604 232.177 59.243 234.288 54.6625C238.053 46.4965 229.151 42.6538 237.641 43.6965C246.131 44.7392 253.529 46.466 265.191 42.1797C276.853 37.8933 250.576 87.6843 246.265 92.1388C241.954 96.5933 254.639 61.9725 272.641 48.4683C284.132 39.8483 286.641 44.2528 287 45.5002C288.815 51.8091 286.219 61.1459 273.504 60.4767C270.025 60.2936 267.85 57.5901 268.662 58.2894C283.315 70.9212 326.778 33.6039 321.324 42.5836C315.485 52.1972 303.08 70.6144 313.455 61.0251C334.28 41.777 339.593 41.4607 335.852 49.1142C334.036 52.8293 332.22 57.6823 335.247 55.2558C338.363 52.7576 351.195 45.2318 349.85 49.1142C349.342 50.5788 349.699 58.3182 357.643 59.9415C365.588 61.5647 383.672 52.8295 384.883 48.9471C386.093 45.0647 380.04 43.6086 375.198 49.9175C372.41 53.5496 372.558 60.4991 379.5 61.0002C382.956 61.2497 391.25 61.6765 404.858 53.1549C428.172 38.5557 421.5 37.5002 415.149 51.2137C408.254 66.1009 408 63.0002 416.965 55.2558C430.241 43.7867 431.664 44.853 434 55.2558C436.471 66.2651 457.901 62.8187 471.344 46.795C477.927 38.9478 478.294 39.3061 481 34C494 8.49999 478 18 474.672 41C473.459 49.3882 476 62 485 62C494 62 506 55.5 506 55.5M452.5 35.5C477 42 509 40 509 40" stroke="black" stroke-width="2"/>
</svg>
