<svg width="708" height="123" viewBox="0 0 708 123" fill="none" xmlns="http://www.w3.org/2000/svg">
<path d="M144.192 57.9137C139.077 62.4059 120.35 70.5019 121.459 63.1382C121.964 59.7804 122.567 57.3589 124.327 52.9208C128.734 41.8033 101.328 71.4192 95.3984 63.1382C93.3889 60.3321 97.4719 48.9524 92.626 48.9524C88.3694 48.9524 69.7005 63.3981 63.7935 66.2353C54.4313 70.7319 64.5593 46.9503 71.0016 34.0586C77.444 21.1669 98.4355 -2.72608 103.426 2.82166C109.78 9.88607 93.5475 29.6201 82.6455 38.4964C62.7339 54.7085 60.4974 55.5717 43.5576 63.1382C34.4872 67.1897 27.6081 70.3107 19.5318 71.4928C11.4554 72.675 16.6361 65.2387 16.6361 65.2387M131.848 34.6192C131.637 34.9886 130.33 36.8324 130.33 36.8324M161.175 53.84C161.175 53.84 167.198 53.8314 176.351 53.1221C185.505 52.4128 186.886 53.4359 186.886 53.4359M240.115 11.4311C227.363 26.9647 218.083 38.4964 210.174 51.9293C205.448 59.9554 196.312 75.2297 205.738 75.2297C221.353 75.2297 259.736 41.8595 256.236 47.5338C252.737 53.2081 244.122 66.9211 251.121 62.1925C258.121 57.4639 270.766 49.6744 271.72 53.2081C272.675 56.7419 269.076 62.6059 273.384 58.5866C277.691 54.5673 283.843 51.2984 285.028 52.4841C286.691 54.1484 286.543 58.5866 293.345 58.5866C296.117 58.5866 302.216 58.5866 309.424 54.1484M251.855 9.35854C253.519 15.461 250.509 18.8158 249.163 19.9979M382.06 4.77385C382.06 4.77385 362.567 43.053 356.554 56.3292M343.193 87.2542C343.802 86.3251 351.01 68.5724 356.554 56.3292M356.554 56.3292C369.66 41.5566 388.632 24.5707 404.573 12.1325M356.554 56.3292C363.061 59.7488 373.075 61.4832 377.652 61.4832C382.229 61.4832 389.767 60.3011 398.92 52.026C408.073 43.7509 391.113 65.9754 397.574 67.1576C404.035 68.3397 413.898 59.4714 422.782 51.6692C431.666 43.867 411.302 72.9441 418.84 66.5605C426.378 60.1769 427.794 57.5867 433.129 55.2197C438.463 52.8527 432.915 65.5752 436.953 62.5016C440.991 59.428 447.29 52.863 447.943 55.17C448.597 57.477 448.042 62.9147 452.478 64.393C456.914 65.8713 468.065 64.9245 479.352 46.225C483.759 38.9237 501.272 11.023 501.272 11.023C494.648 26.9964 477.359 46.5281 470.736 62.5016C464.112 78.475 484.179 50.2072 491.387 51.6692C498.595 53.1312 494.872 64.393 487.582 65.8713C480.293 67.3496 511.548 60.9375 515.586 59.2825C519.624 57.6275 522.585 53.9546 520.432 52.4262C518.278 50.8979 513.432 53.6084 511.817 58.337C510.201 63.0656 511.996 67.4256 518.278 66.6121C524.559 65.7986 538.597 59.48 547.481 51.9143C556.365 44.3485 543.411 66.8094 553.946 66.8094C564.481 66.8094 608.935 32.6589 608.935 13.2419C608.935 -6.17503 556.815 76.2585 583.984 66.048C611.153 55.8375 624.441 38.0037 614.48 52.4262C604.519 66.8487 614.508 69.2422 624.919 63.0247C635.33 56.8073 649.315 39.1696 644.88 55.8127C640.444 72.4558 636.399 101.151 621.592 116.283C606.785 131.414 589.07 107.406 614.48 82.9965C639.889 58.5866 697 78.5583 697 78.5583M406.189 38.0763C406.189 38.0763 405.947 39.2525 405.65 39.9678C405.328 40.7436 404.573 41.8592 404.573 41.8592" stroke="#347032" stroke-width="4"/>
<path d="M30 56.8329C64.7115 67.1959 723.277 31.1725 675.525 82" stroke="#799B70" stroke-opacity="0.3" stroke-width="60" stroke-linecap="round"/>
</svg>
