<svg width="617" height="110" viewBox="0 0 617 110" fill="none" xmlns="http://www.w3.org/2000/svg">
<path d="M117.5 51.3936C112.887 55.4422 96 62.739 97 56.1023C97.456 53.0759 98 50.8936 99.5864 46.8936C103.56 36.8736 78.8473 63.5657 73.5 56.1023C71.688 53.5732 75.3698 43.317 71 43.317C67.1615 43.317 50.3267 56.3365 45 58.8936C36.5576 62.9463 45.6906 41.5125 51.5 29.8936C57.3094 18.2746 76.2388 -3.25949 80.7388 1.74054C86.469 8.10751 71.8309 25.8933 62 33.8933C44.0445 48.5048 42.0278 49.2828 26.7521 56.1023C18.5728 59.7538 12.3695 62.5666 5.08656 63.6321C-2.19638 64.6975 2.47536 57.9954 2.47536 57.9954M106.368 30.3989C106.179 30.7317 105 32.3936 105 32.3936M132.815 47.722C132.815 47.722 138.246 47.7143 146.5 47.075C154.754 46.4357 156 47.3579 156 47.3579M204 9.5C192.5 23.5 184.132 33.8933 177 46C172.739 53.2337 164.5 67 173 67C187.08 67 221.693 36.9243 218.537 42.0384C215.381 47.1525 207.613 59.5117 213.925 55.2499C220.237 50.9882 231.639 43.9677 232.5 47.1526C233.361 50.3375 230.116 55.6225 234 52C237.884 48.3775 243.431 45.4314 244.5 46.5C246 48 245.867 52 252 52C254.5 52 260 52 266.5 48M214.586 7.63206C216.086 13.1321 213.373 16.1556 212.159 17.2211M332 3.5C332 3.5 314.422 38 309 49.9655M296.951 77.8373C297.5 77 304 61 309 49.9655M309 49.9655C320.818 36.6513 337.926 21.3423 352.301 10.1322M309 49.9655C314.868 53.0475 323.898 54.6107 328.025 54.6107C332.152 54.6107 338.949 53.5452 347.203 46.0871C355.457 38.629 340.163 58.6593 345.99 59.7248C351.816 60.7902 360.71 52.7974 368.721 45.7655C376.733 38.7336 358.369 64.9401 365.166 59.1867C371.964 53.4333 373.241 51.0989 378.052 48.9655C382.862 46.8322 377.859 58.2986 381.5 55.5285C385.141 52.7583 390.822 46.8415 391.411 48.9207C392 51 391.5 55.9008 395.5 57.2332C399.5 58.5655 409.556 57.7122 419.734 40.8588C423.708 34.2783 439.5 9.13219 439.5 9.13219C433.527 23.5286 417.937 41.132 411.964 55.5285C405.991 69.9249 424.086 44.4478 430.586 45.7655C437.086 47.0832 433.729 57.2332 427.156 58.5655C420.582 59.8979 448.766 54.1188 452.408 52.6272C456.049 51.1356 458.72 47.8253 456.778 46.4478C454.836 45.0704 450.466 47.5133 449.009 51.7751C447.553 56.0368 449.171 59.9663 454.836 59.2332C460.5 58.5 473.159 52.8053 481.17 45.9864C489.181 39.1676 477.5 59.411 487 59.411C496.5 59.411 536.586 28.6321 536.586 11.1321C536.586 -6.36794 489.586 67.9272 514.086 58.7248C538.586 49.5224 550.569 33.4492 541.587 46.4478C532.604 59.4465 541.612 61.6036 551 56C560.388 50.3964 573 34.5 569 49.5C565 64.5 561.352 90.3625 548 104C534.648 117.637 518.673 96 541.587 74C564.5 52 616 70 616 70M353.758 33.5147C353.758 33.5147 353.54 34.5747 353.273 35.2194C352.982 35.9186 352.301 36.9241 352.301 36.9241" stroke="#40873E" stroke-width="2"/>
</svg>
