<svg width="1314" height="102" viewBox="0 0 1314 102" fill="none" xmlns="http://www.w3.org/2000/svg">
<path d="M0.5 63C53.9803 49.5402 174.203 61.8004 239 63C303.797 64.1996 420 54.6001 441.627 42.1001M441.627 42.1001C447.182 33.4538 484.871 -7.53206 484 2.59897C482.237 23.1 441.627 42.1001 441.627 42.1001ZM441.627 42.1001C441.627 42.1001 431.906 51.8612 430.5 55.6001C427.501 63.5763 445.317 42.1001 454 42.1001C457.499 42.1001 457.5 44 456 45.3977C449.332 51.6111 436.864 49.8013 442 50.6001C451 52 451 57 460 56.6001C474.486 55.9565 482.595 43.3295 481 46.3977C477.682 52.7787 477.067 55.6001 480.5 55.6001C486.235 55.6001 508.112 46.7096 513 43.3977C517.443 40.3876 502.474 59.1165 504.918 56.685C511.645 49.9937 526.833 39.6956 523.5 49.6001C522.506 52.5537 520.284 54.5165 524.107 52.4373C533 47.6001 538.5 44.6001 537 52.4373C536.288 56.1571 538.621 58.3506 545.797 55.1895C576.782 41.5415 593.648 4.14488 581.5 23.1001C570.437 40.3626 557.459 63.4567 565.792 52.8956C572.277 44.6764 582 42.2002 581.5 48.1001C581 54 577.367 60.188 570.5 56.1895C563.633 52.1909 575.224 56.1895 582.59 56.1895C589.956 56.1895 606.84 51.0549 609.001 49.618C610.5 48.6209 612.26 47.1551 612 45.6001C611.5 42.609 605.5 45.1001 603 50.618C602.378 51.9897 601 57.7348 608 57.1001C614.5 56.5107 626.354 50.7361 633.851 46.1001C641.348 41.4641 635 52.0484 635 54.6001C635 63.6001 685 42.1001 687.5 26.6001C690 11.1001 658.502 51.9577 664 56.1001C669.498 60.2425 692.147 51.8261 697.702 45.6633C701.806 41.1097 691.713 57.0953 697.702 56.9199C706.243 56.6698 719.959 38.2456 715 48.5C709.387 60.1059 690.54 112.712 680.5 95.5C677 89.5 680.265 79.6481 685 74.5C694.11 64.5955 710.004 59.4745 736.219 55.1956C772.208 49.3217 790.841 38.3718 797.032 44.9943C799.009 47.1096 788.47 36.2324 784.341 51.3718C782.841 56.8718 789.775 53.4562 793.969 51.0335C800.382 47.3283 802.218 42.4649 801 48.5C798.501 60.8843 795.535 80.3718 787.5 95.5C779.465 110.628 762.659 87.1282 780 70C797.341 52.8718 828.841 39.5119 834.018 44.0996C837.415 47.1096 829.046 37.5583 823.5 50.5C822 54 820.5 59.9245 826.5 56.5C832.5 53.0755 839.341 42.3718 837.341 48.8718C835.341 55.3718 839.5 58 844.5 57.5C850.29 56.921 867.506 50.9827 876.003 45.0005C880.025 42.1685 872.003 47.4931 871.503 52.9767C871.003 58.4604 877.016 61.2954 880.5 55.9678C885.397 48.4788 874.383 40.8744 883.5 44C904.992 51.3685 936.901 58.6152 1056 57.5C1122.68 56.8756 1245.03 42.508 1313.5 55.9678M482.237 40.7386L482.948 39.7415" stroke="black" stroke-width="1.5"/>
</svg>
