<svg width="61" height="62" viewBox="0 0 61 62" fill="none" xmlns="http://www.w3.org/2000/svg">
<path d="M3.16638 59.1936C22.0467 60.2587 54.6477 58.468 57.5324 58.427C60.4171 58.3859 58.8863 25.8556 58.5869 4.62432C58.5337 0.852189 9.03146 2.9581 4.81543 3.01755C0.599403 3.077 2.90045 40.3325 3.11944 55.8651" stroke="black" stroke-width="3" stroke-linecap="round"/>
<path d="M18.5 23C18.5 31.9025 18.1434 36 17.5 46.5" stroke="black" stroke-width="3" stroke-linecap="round"/>
<path d="M18.8623 15.4987L18.8623 16" stroke="black" stroke-width="3" stroke-linecap="round"/>
<path d="M29.9998 23.5C29.3065 31.6467 29.595 38.9956 29.2432 43.9956C28.4999 54.5602 28.9998 24.5893 39.5 24.5893C50.1885 24.5893 47.4999 42.5981 46.9998 46.5937" stroke="black" stroke-width="3" stroke-linecap="round"/>
</svg>
