<svg width="74" height="175" viewBox="0 0 74 175" fill="none" xmlns="http://www.w3.org/2000/svg">
<path d="M6.16617 110.556C1.92966 102.471 1.90815 88.0162 8.60278 76.203C8.9547 75.582 11.2187 70.0512 20.7162 62.5203C24.0858 59.8486 28.6429 57.1294 32.7073 54.5284C45.293 46.4737 75.0473 23.7376 62.9883 7.60624C56.4785 -1.10189 41.4532 6.75028 34.2761 16.2598C29.138 23.0675 26.723 29.029 25.2863 36.1495C22.3437 50.734 23.292 63.5468 23.0162 79.6802C22.8161 91.3908 22.8943 102.778 22.9624 111.386C22.9841 114.105 23.2706 131.893 23.5732 132.788C23.7216 133.225 26.068 104.926 26.2955 101.831C27.1915 89.6262 28.281 83.065 33.5646 74.081C36.7441 68.675 46.5581 61.4702 52.7683 62.5832C68.0872 65.3289 62.5043 84.1762 56.4769 93.1077C53.2462 97.8951 47.2356 104.753 40.4097 105.809C38.1371 106.161 33.5099 106.388 31.6681 104.864C30.8798 104.211 35.8986 113.365 44.1388 115.695C46.2947 116.304 50.6696 116.148 53.594 114.711C58.8348 112.136 66.0763 104.171 70.234 90.3927C70.3822 89.9015 69.6642 126.538 69.4215 130.35C68.1969 149.598 65.2432 167.195 55.9945 170.818C46.1727 174.665 40.2763 164.936 39.1416 162.934C38.3537 161.543 36.0605 158.266 33.6396 148.023" stroke="black" stroke-width="1.5" stroke-linecap="round" stroke-linejoin="round"/>
</svg>
