<?xml version="1.0" encoding="utf-8"?>
<!-- Generator: Adobe Illustrator 26.5.0, SVG Export Plug-In . SVG Version: 6.00 Build 0)  -->
<svg version="1.1" id="Layer_1" xmlns="http://www.w3.org/2000/svg" xmlns:xlink="http://www.w3.org/1999/xlink" x="0px" y="0px"
	 viewBox="0 0 500 500" style="enable-background:new 0 0 500 500;" xml:space="preserve">
<style type="text/css">
	.st0{fill:none;stroke:#000000;stroke-width:4;stroke-linecap:round;stroke-linejoin:round;stroke-miterlimit:4;}
</style>
<path class="st0" d="M13.1,242.2c-10.4-17.9-10.5-50,5.8-76.1c0.9-1.4,6.4-13.6,29.5-30.3c8.2-5.9,19.3-11.9,29.2-17.7
	c30.7-17.8,103.3-68.1,73.8-103.9c-15.9-19.3-52.6-2-70.1,19.1C68.9,48.4,63,61.6,59.5,77.4c-7.1,32.3-4.8,60.7-5.4,96.5
	c-0.4,26-0.2,51.2,0,70.3c0.1,6,0.8,45.5,1.6,47.4c0.4,1,6-61.7,6.5-68.6c2.1-27,4.8-41.6,17.6-61.5c7.7-12,31.7-27.9,46.8-25.4
	c37.4,6.1,23.9,47.9,9.2,67.7c-7.9,10.6-22.5,25.8-39.2,28.1c-5.5,0.8-16.8,1.3-21.3-2.1c-1.9-1.5,10.4,18.9,30.5,24.1
	c5.3,1.4,15.9,1,23.1-2.1c12.8-5.7,30.4-23.3,40.5-53.8c0.4-1.1-1.3,80.1-1.8,88.6C164.7,329,157.5,368,135,376
	c-24,8.5-38.4-13.1-41.2-17.5c-1.9-3.1-7.5-10.4-13.5-33.1"/>
</svg>
