<svg width="83" height="101" viewBox="0 0 83 101" fill="none" xmlns="http://www.w3.org/2000/svg">
<path d="M0.5 64C23.8255 59.0517 46.8039 46 63 28.5C67.799 23.3147 78.0691 9.46775 75 3.00005C68.3565 -11 20.7923 86.5585 33.4927 67.1791C42.002 54.1949 56.4032 35.282 60.3877 44.8271C61.921 48.5004 57.8039 54.6524 53.8039 56.9754C46.8311 61.0248 41.901 56.1857 42.4577 57.8021C43.9519 62.1407 46.4421 69.0826 52.9169 66.1902C59.3916 63.2977 67.4549 44.5366 66.1153 51.1494C62.1309 70.8181 55.9052 100.032 45.446 100.032C38.4733 100.032 39.1762 86.9597 42.4577 80.9417C47.1892 72.2643 54.651 67.9256 68.3565 67.9256C78.3176 67.9256 81.804 73.9998 81.804 73.9998" stroke="black" stroke-width="1.5"/>
</svg>
