<svg width="179" height="181" viewBox="0 0 179 181" fill="none" xmlns="http://www.w3.org/2000/svg">
<path d="M123.835 31.9313C93.4232 15.6025 53.2605 20.6807 33.3795 57.7077C14.6939 92.5085 26.4849 134.096 56.8962 150.424C87.3075 166.753 135.728 151.387 148.261 115.388C166.5 63 123.835 48 123.835 48" stroke="#FF4500" stroke-width="3" stroke-linecap="round"/>
<path d="M53 96.6626C54 79.7822 78.3039 82.543 94.5 65.043C99.5 59.6405 105.922 47.4652 99.8565 43.6626C85.5 34.6625 60 120.663 67 100.663C72.1284 86.0101 90 72.3193 90 82.6626C90 86.6626 87 89.7225 85 91.1626C76.9388 96.9672 72.9433 91.5463 73.5 93.1627C74.9942 97.5013 76.5253 105.055 83 102.163C89.4747 99.2702 98.9549 81.0796 97.6153 87.6924C93.6309 107.361 87.4052 136.575 76.946 136.575C69.9733 136.575 70.6762 123.503 73.9577 117.485C78.6892 108.807 86.151 104.469 99.8565 104.469C109.818 104.469 113.304 110.543 113.304 110.543" stroke="#FF4500" stroke-width="3" stroke-linecap="round"/>
</svg>
