<svg width="519" height="101" viewBox="0 0 519 101" fill="none" xmlns="http://www.w3.org/2000/svg">
<path d="M15.2598 35.3921C15.2598 35.3921 -2.88082 71.3638 1.75943 62.8921C6.79306 53.7022 35.387 31.3903 35.387 43.0437C35.387 47.5118 28.449 60.177 32.7598 55.8921C37.0705 51.6072 53.7598 37.3068 53.7598 44.8921C53.7598 52.4774 55.0752 60.3022 62.2598 58.3026C74.527 54.8884 88.8374 35.7684 87.7598 40.8921C86.4704 47.022 78.9118 55.3015 81.2598 58.3026C87.8278 66.6979 115.26 32.7571 115.26 43.8921C115.26 55.8921 93.2999 97.2291 79.7598 99.3921C73.5 100.392 70.7402 86.8921 85 71.3921C99.2598 55.8921 151 60.8921 153.5 53.8921M222.5 30C222.5 30 213.176 66.8797 220.5 63.3921C229.083 59.305 245.5 33.2002 245.5 42.3525C245.5 48 252.936 62.1288 260 56.2551C263.436 53.3974 268.5 37.7411 276.5 40.049C296.798 45.9046 328.722 35.0473 323.319 37.7411C318.691 40.049 311.837 50.802 313.524 56.2551C315.838 63.7315 324.477 58.3178 327.369 54.2551C330.262 50.1923 329.105 43.5107 327.369 40.049C325.634 36.5872 330.5 44 347 44C363.5 44 380 33.3661 383.5 37.7411C387 42.1161 385 48.6471 387 54.2551C391.666 67.3376 423.654 55.1011 431.5 45.0615M425 60.5C424.806 61.3793 425.29 59.0794 430.5 49.3921M425 60.5C425.194 59.6207 429.087 51.6576 431.5 45.0615M425 60.5C425 60.5 444.436 8.83765 456.5 1.89308C468.564 -5.0515 444.181 30.325 431.5 45.0615M430.5 49.3921C436.648 49.8885 446.525 45.1508 446 39.8921C445.475 34.6334 436.92 38.7624 431.5 45.0615M430.5 49.3921C436.648 49.8885 446 57 452.5 58.5C465.445 61.4872 493 62.0615 517.5 45.0615" stroke="black" stroke-width="2"/>
</svg>
