<svg width="151" height="102" viewBox="0 0 151 102" fill="none" xmlns="http://www.w3.org/2000/svg" stroke-width="4">
<path d="M150.485 1.00014C152.499 0.446407 -5.5 14 0.985358 16.0001C7.47072 18.0003 17.1365 30.9323 27.4854 40.5001M150.485 1.00014C89.9994 18.4999 75.4994 23.9999 27.4854 40.5001M150.485 1.00014C106.485 26.0001 38.9854 52.9999 36.9854 54.0001M150.485 1.00014C121.391 39.8573 75.9854 108.021 75.9854 100.5C75.9854 96.4999 59.3722 80.6922 48.7273 68.0001M27.4854 40.5001C27.4854 55.9259 25.4854 80.9999 27.4854 80.0001M27.4854 80.0001C31.1953 69.8465 35.4854 54.0001 36.9854 54.0001M27.4854 80.0001C33.4854 80.0001 40.4318 72.6864 48.7273 68.0001M36.9854 54.0001C41.5709 59.4675 43.9854 62.3463 48.7273 68.0001" stroke="black"/>
</svg>
