<svg width="4486" height="1629" viewBox="0 0 4486 1629" fill="none" xmlns="http://www.w3.org/2000/svg">
<path d="M3707.5 1291.1C3799.51 1392.65 4490.9 656.214 4339.17 718.324C4187.44 780.433 3191.73 1228.99 3040 1291.1C2888.27 1353.21 3910.93 678.917 3831.5 570.999C3712.14 408.828 2299.67 1658.38 2214 1487.02C2154.44 1367.92 3638.7 247.645 3329.5 435.999C3020.3 624.353 2234.2 1102.75 1925 1291.1C1615.8 1479.46 2740 593.558 2916.25 375.79C3148.91 88.3298 1066.96 1682.45 1112.47 1375.23C1151.59 1111.13 2227.76 526.981 2375.5 280.501C2575.55 -53.2482 435.592 1630.84 611.456 1291.1C739.12 1044.48 2020.66 148.226 1659.5 295.999C993.5 568.501 251.243 1068.54 409 892C500.819 789.25 1517.57 18.5044 1194.6 138.501C871.638 258.497 126 629 126 629" stroke="#D7E1D4" stroke-width="250" stroke-linecap="round"/>
</svg>
