<svg width="751" height="109" viewBox="0 0 751 109" fill="none" xmlns="http://www.w3.org/2000/svg">
<path d="M0 64.4049C20 64.4049 45.3592 29.9049 46.5 34.4048C55.5 69.9047 20.015 77.8482 28.5 69.9048C52 47.9048 48.064 59.1945 75.5 40.9047C78.5 38.9048 64.619 44.4048 67 56.9048C68.046 62.3962 72.3341 61.4555 75 59.4048C88 49.4048 71.8476 35.2337 78 39.4048C107.5 59.4049 112.339 29.8447 107 44.4048C101.5 59.4048 100 67.9048 111.5 55.9048C123 43.9048 132.5 34.4048 125.5 55.9048C122.309 65.7061 146.777 33.5845 142.5 52.4048C137.5 74.4048 182.099 50.2894 174 43.4048C164 34.9046 149 77.9046 189.5 53.9048" stroke="black" stroke-width="3.5" stroke-linecap="round"/>
<path d="M256.876 16C239.952 39.6674 215.5 81.3503 235 76.3503C263.357 69.0793 294.229 16 293.082 18.5304C289.395 26.6617 248.992 78.0498 269 58.3503C279 48.5047 289.918 37.3503 288 51.8503C285.301 72.2532 307.471 60.813 317.5 45.3503C321.593 39.039 308.25 53.1379 316 59.8651C325.089 67.7541 344.665 37.8856 342 44.3503C321.315 94.5252 361.831 32.6823 360 48.3503C358.746 59.0795 369 68.8503 386.5 52.8503C395.373 44.738 403.354 43.8079 395 46.3503C383.5 49.8503 381.992 63.8503 389 63.8503C395.268 63.8503 403.051 54.8503 405.5 49.8503C409.738 41.1982 406.5 73.0149 399.5 97.3503C392.155 122.884 377.774 100.99 384.5 84.8503C392.21 66.3503 404.5 67.3503 418.5 58.8503C433.201 49.9247 438.241 41.5864 438.5 43.8503C442.031 74.7021 424.5 81.5392 424.5 68.7021C424.5 56.2021 444.969 63.2465 450.969 48.3503M224 24.8503C224 24.8503 265.5 26.3503 265.5 24.8503M324 29.8503L323 31.8503" stroke="black" stroke-width="3.5" stroke-linecap="round"/>
<path d="M480 70.1814C527 76.1814 559.749 -43.3654 517.5 21.1814C499.5 48.6814 494.5 89.1814 544 55.1814" stroke="black" stroke-width="3.5" stroke-linecap="round"/>
<path d="M564 75.4071C632.333 65.5003 652.5 -47.8302 603.5 42.8839C589.5 68.8023 603.167 75.0812 634 56.9187C664.833 38.7562 661.103 39.0441 652.5 46.5C645 53 646.5 71.5 659 63C675.629 51.6922 655.127 36.1005 666.083 42.884C672.75 47.0119 688.075 41.0583 687.75 42.884C685.25 56.9187 688.074 70.607 695.25 61.0467C707.333 44.948 700.291 38.4332 712.75 47.8375C725.875 57.7444 731.966 55.6803 738.583 47.0118C744.512 39.2449 734 37.5177 727.75 47.0118C717.228 62.9952 731.083 72.6047 749 58.9826" stroke="black" stroke-width="3.5" stroke-linecap="round"/>
</svg>
